<?xml version="1.0" encoding="utf-8"?>
<!-- Generator: Adobe Illustrator 24.3.0, SVG Export Plug-In . SVG Version: 6.00 Build 0)  -->
<svg version="1.1" id="Layer_1" xmlns="http://www.w3.org/2000/svg" xmlns:xlink="http://www.w3.org/1999/xlink" x="0px" y="0px"
	 viewBox="0 0 792 288" style="enable-background:new 0 0 792 288;" xml:space="preserve">
<style type="text/css">
	.st0{fill:#042B44;}
	.st1{fill:#FFFFFF;}
	.st2{fill:#F5333F;}
	.st3{fill:#EF4236;}
</style>
<rect class="st0" width="792" height="288"/>
<g>
	<g>
		<path class="st1" d="M247.89,120.81c0,3.43,0.12,3.68,3.44,3.68h8.46c6.36,0,7.83-0.86,9.06-6.73l0.62-3.06
			c0.85-0.98,3.92-0.98,4.53,0.12c-0.24,3.92-0.37,8.32-0.37,12.98c0,4.65,0.13,9.06,0.37,12.98c-0.62,1.11-3.68,1.23-4.53,0.13
			l-0.62-3.06c-1.24-5.88-2.7-6.86-9.06-6.86h-8.46c-3.32,0-3.44,0.12-3.44,3.8v14.57c0,5.63,0.49,9.55,1.97,11.63
			c1.6,2.21,3.92,3.19,12.86,3.19c10.66,0,14.83-0.36,21.56-14.21c0.98-1.35,4.04-0.86,4.53,0.61c-0.49,6.37-3.44,16.29-5.15,19.6
			c-6.48-0.25-18.24-0.37-28.28-0.37h-15.93c-5.87,0-11.87,0.12-21.07,0.37c-0.98-0.74-0.98-3.67,0-4.29l5.78-0.86
			c5.49-0.86,6.23-1.59,6.23-12.87v-45.69c0-11.15-0.74-11.89-6.23-12.99l-3.07-0.61c-1.12-0.73-0.99-3.56,0.24-4.29
			c5.74,0.25,11.74,0.37,17.64,0.37h25.97c7.84,0,14.81-0.12,16.42-0.37c0.13,1.96,0.97,10.78,1.59,19
			c-0.51,1.34-3.32,1.59-4.54,0.49c-1.34-4.29-3.06-7.97-4.65-9.68c-2.34-2.33-6.01-3.8-12.01-3.8h-9.81
			c-4.04,0-4.04,0.25-4.04,4.78V120.81z"/>
		<path class="st1" d="M303.04,108.93c0-12.38-0.24-13.6-5.39-14.34l-3.31-0.49c-1.1-0.61-1.34-4.29,0.49-4.41
			c9.32-0.61,18.25-1.1,30.52-1.1c11.76,0,19.58,1.35,24.98,4.53c5.26,3.19,8.47,8.33,8.47,15.56c0,10.29-8.72,14.33-12.5,15.31
			c-1.23,0.25-2.45,0.74-2.45,1.35c0,0.37,0.59,0.73,1.7,0.98c9.68,2.08,17.88,8.45,18,20.33c0.13,11.27-6.59,17.88-14.33,20.58
			c-7.71,2.69-16.9,3.06-24.37,3.06c-4.42,0-9.07-0.49-12.62-0.49c-6.01,0-12.01,0.12-18.99,0.37c-0.98-0.74-0.98-3.92,0-4.29
			l3.54-0.73c5.52-1.11,6.25-1.96,6.25-12.99V108.93z M319.94,120.81c0,3.19,0.13,3.43,6.49,3.43c10.54,0,14.47-6.74,14.47-14.09
			c0-10.66-6.63-15.93-15.07-15.93c-5.75,0-5.88,0.99-5.88,6.37V120.81z M319.94,149.11c0,9.55,1.24,15.56,10.78,15.56
			c9.07,0,13.85-6.98,13.85-16.91c0-10.65-6.12-18.13-17.88-18.13c-6.75,0-6.75,0.12-6.75,5.02V149.11z"/>
		<path class="st1" d="M375.69,106.6c0-11.39-0.73-12.13-6.26-13.23l-3.05-0.61c-0.99-0.73-1.11-3.43,0.24-4.17
			c5.88,0.25,12,0.37,17.88,0.37c6.01,0,12.01-0.12,17.88-0.37c0.99,0.74,0.99,3.43,0,4.17l-2.95,0.5
			c-5.49,0.97-6.23,1.96-6.23,13.35v28.3c0,14.33,1.61,30.14,20.22,30.14c15.68,0,20.45-13.72,20.45-30.51V119.7
			c0-9.91-0.49-19.23-1.84-22.42c-1.09-2.57-3.8-3.3-7.11-3.92l-3.31-0.61c-0.98-0.97-0.73-3.43,0-4.17
			c6.62,0.25,11.39,0.37,16.42,0.37c4.53,0,9.05-0.12,13.71-0.37c0.73,0.74,0.99,3.19,0,4.17l-2.19,0.5
			c-3.18,0.73-5.51,1.46-6.62,4.04c-1.35,3.19-1.84,12.5-1.84,22.42v13.72c0,11.52-1.1,22.05-7.85,29.52
			c-5.38,5.76-14.33,8.82-24.23,8.82c-9.33,0-17.65-1.47-24.28-6.86c-6.38-5.26-9.06-14.33-9.06-27.68V106.6z"/>
		<path class="st1" d="M468.32,142.13c-2.95,0-3.31,0.13-4.03,2.45l-4.78,14.21c-0.73,2.46-0.86,3.43-0.86,4.41
			c0,0.74,1.59,1.47,5.02,2.09l3.67,0.61c0.73,0.86,0.98,3.68-0.25,4.29c-4.28-0.25-8.69-0.25-13.84-0.37
			c-4.16,0-6.99,0.37-12.61,0.37c-1.36-0.74-1.23-3.31-0.37-4.29l3.3-0.37c2.95-0.37,5.39-1.35,7.48-6.12
			c2.07-4.9,4.41-10.79,7.72-19.61l11.14-29.89c2.82-7.71,4.9-12,4.54-15.55c5.89-1.34,10.4-7.35,10.65-7.35
			c1.59,0,2.33,0.61,2.83,2.45c0.97,3.56,2.45,8.09,5.51,16.78l16.66,48.02c2.56,7.35,3.67,10.17,8.19,10.91l4.67,0.73
			c0.73,0.62,0.98,3.55-0.12,4.29c-5.88-0.25-12.49-0.37-18.86-0.37c-6.13,0-10.9,0.12-16.54,0.37c-1.35-0.74-1.59-3.31-0.24-4.29
			l3.92-0.61c2.82-0.5,3.31-1.35,3.31-2.09c0-0.86-0.85-3.79-2.34-8.33l-3.3-10.54c-0.61-1.95-1.59-2.2-5.88-2.2H468.32z
			 M482.28,135.63c2.82,0,3.42-0.37,2.46-3.55l-3.19-9.92c-1.71-5.26-3.91-11.88-5.01-14.46c-0.99,2.81-3.43,9.44-5.28,15.07
			l-3.06,9.18c-1.11,3.31-0.49,3.68,2.58,3.68H482.28z"/>
		<path class="st1" d="M599.53,148.99c0,7.96,0,15.68,0.25,19.73c-0.86,1.46-4.27,2.81-7.23,2.81c-0.12,0-4.16-6.24-9.92-13.35
			l-28.3-35.04c-7.09-8.69-11.15-13.83-13.35-15.67c-0.61,1.22-0.61,3.3-0.61,7.84v23.76c0,9.92,0.49,19.11,1.83,22.41
			c1.1,2.57,3.92,3.43,7.11,3.92l3.44,0.5c0.98,0.98,0.72,3.55,0,4.29c-6.62-0.25-11.51-0.37-16.43-0.37
			c-4.53,0-9.05,0.12-13.71,0.37c-0.74-0.74-0.98-3.31,0-4.29l2.09-0.37c3.3-0.62,5.75-1.48,6.72-4.05
			c1.35-3.3,1.71-12.49,1.71-22.41v-31.11c0-6.74-0.11-8.7-0.85-10.41c-0.98-2.09-2.7-3.55-6.98-4.17l-3.43-0.48
			c-0.86-0.99-0.74-3.92,0.5-4.29c5.75,0.25,11.87,0.37,16.89,0.37c4.18,0,7.75-0.12,10.3-0.37c1.21,5.51,9.19,14.82,20.21,27.94
			l10.3,12.13c5.38,6.36,8.95,10.66,11.75,13.47c0.49-1.22,0.49-3.31,0.49-5.52V119.7c0-9.91-0.49-19.11-1.83-22.42
			c-1.11-2.57-3.81-3.43-7.11-3.92l-3.31-0.48c-0.99-0.99-0.74-3.56,0-4.29c6.61,0.25,11.39,0.37,16.4,0.37
			c4.53,0,8.95-0.12,13.72-0.37c0.74,0.74,0.99,3.31,0,4.29l-2.2,0.37c-3.18,0.48-5.51,1.46-6.62,4.04
			c-1.35,3.31-1.84,12.5-1.84,22.42V148.99z"/>
		<path class="st1" d="M636.42,142.13c-2.94,0-3.3,0.13-4.04,2.45l-4.76,14.21c-0.75,2.46-0.86,3.43-0.86,4.41
			c0,0.74,1.59,1.47,5.01,2.09l3.68,0.61c0.73,0.86,0.98,3.68-0.24,4.29c-4.3-0.25-8.71-0.25-13.85-0.37
			c-4.17,0-6.98,0.37-12.62,0.37c-1.35-0.74-1.22-3.31-0.36-4.29l3.3-0.37c2.94-0.37,5.39-1.35,7.48-6.12
			c2.07-4.9,4.41-10.79,7.71-19.61l11.15-29.89c2.82-7.71,4.9-12,4.53-15.55c5.87-1.34,10.41-7.35,10.66-7.35
			c1.6,0,2.32,0.61,2.82,2.45c0.99,3.56,2.45,8.09,5.51,16.78l16.67,48.02c2.57,7.35,3.66,10.17,8.19,10.91l4.67,0.73
			c0.73,0.62,0.98,3.55-0.13,4.29c-5.88-0.25-12.5-0.37-18.86-0.37c-6.13,0-10.9,0.12-16.55,0.37c-1.34-0.74-1.59-3.31-0.23-4.29
			l3.91-0.61c2.83-0.5,3.31-1.35,3.31-2.09c0-0.86-0.86-3.79-2.32-8.33l-3.31-10.54c-0.63-1.95-1.59-2.2-5.88-2.2H636.42z
			 M650.37,135.63c2.83,0,3.44-0.37,2.46-3.55l-3.18-9.92c-1.7-5.26-3.91-11.88-5.01-14.46c-0.99,2.81-3.44,9.44-5.28,15.07
			l-3.06,9.18c-1.1,3.31-0.49,3.68,2.56,3.68H650.37z"/>
	</g>
	<g>
		<path class="st2" d="M375.41,222.85c0,2.93,0.25,4.93,1.07,5.93c0.81,1.06,1.93,1.57,6.49,1.57c5.68,0,7.43-0.19,11.12-7.43
			c0.5-0.63,1.95-0.38,2.37,0.37c-0.3,3.24-1.81,8.43-2.68,10.11c-3.31-0.13-9.31-0.2-14.42-0.2h-8.37c-2.88,0-6,0.07-9.87,0.2
			c-0.55-0.38-0.68-1.81-0.18-2.18l2.36-0.32c2.82-0.37,3.18-0.88,3.18-6.68v-23.23c0-5.8-0.36-6.37-3.18-6.75l-1.8-0.25
			c-0.62-0.37-0.62-1.81,0.14-2.19c3.23,0.13,6.35,0.19,9.35,0.19c3,0,6.12-0.06,9.24-0.19c0.49,0.38,0.49,1.82,0,2.19l-1.63,0.25
			c-2.81,0.44-3.18,0.95-3.18,6.75V222.85z"/>
		<path class="st2" d="M414.54,213.42c-2.56,0-2.62,0.06-2.62,1.81v8.99c0,5.8,0.37,6.37,3.18,6.74l2,0.26
			c0.49,0.37,0.49,1.8,0,2.18c-3.56-0.13-6.68-0.2-9.49-0.2c-3,0-6.13,0.07-9.31,0.2c-0.49-0.38-0.49-1.81,0-2.18l1.5-0.2
			c2.87-0.37,3.19-1,3.19-6.8v-23.23c0-5.8-0.32-6.43-3.19-6.81l-1.5-0.19c-0.49-0.37-0.49-1.81,0-2.19
			c3.05,0.13,6.31,0.19,9.31,0.19c2.81,0,5.92-0.06,8.67-0.19c0.5,0.38,0.5,1.82,0,2.19l-1.31,0.19c-2.68,0.38-3.06,1.01-3.06,6.81
			v7.24c0,1.81,0.05,1.88,2.62,1.88h13c2.62,0,2.62-0.06,2.62-1.88v-7.24c0-5.8-0.32-6.3-3.19-6.75l-1.68-0.25
			c-0.5-0.37-0.5-1.81,0-2.19c3.45,0.13,6.49,0.19,9.49,0.19c3.06,0,5.93-0.06,8.82-0.19c0.49,0.38,0.49,1.82,0,2.19l-1.25,0.19
			c-2.88,0.44-3.25,1.01-3.25,6.81v23.23c0,5.8,0.37,6.24,3.25,6.74l1.49,0.26c0.51,0.37,0.51,1.8,0,2.18
			c-3.12-0.13-6.18-0.2-9.05-0.2c-3.13,0-6.17,0.07-9.18,0.2c-0.49-0.38-0.49-1.81,0-2.18l1.37-0.2c2.87-0.37,3.19-1,3.19-6.8v-8.99
			c0-1.75,0-1.81-2.62-1.81H414.54z"/>
		<path class="st2" d="M452.98,200.99c0-5.8-0.38-6.18-3.19-6.75l-1.55-0.31c-0.51-0.37-0.57-1.74,0.13-2.12
			c2.99,0.13,6.12,0.19,9.12,0.19c3.05,0,6.11-0.06,9.1-0.19c0.49,0.38,0.49,1.75,0,2.12l-1.5,0.25c-2.81,0.5-3.18,1.01-3.18,6.81
			v14.43c0,7.3,0.81,15.36,10.3,15.36c7.99,0,10.42-7,10.42-15.55v-7.56c0-5.05-0.24-9.8-0.93-11.42c-0.57-1.31-1.95-1.69-3.62-2
			l-1.68-0.31c-0.5-0.49-0.36-1.74,0-2.12c3.36,0.13,5.8,0.19,8.37,0.19c2.3,0,4.62-0.06,6.99-0.19c0.36,0.38,0.49,1.63,0,2.12
			l-1.13,0.25c-1.62,0.38-2.82,0.76-3.37,2.07c-0.69,1.62-0.94,6.37-0.94,11.42v7c0,5.87-0.57,11.23-4,15.05
			c-2.73,2.92-7.3,4.49-12.36,4.49c-4.74,0-8.99-0.74-12.35-3.49c-3.27-2.69-4.63-7.31-4.63-14.12V200.99z"/>
		<path class="st2" d="M508.41,224.09c0,5.88,0.37,6.31,3.25,6.82l1.75,0.32c0.49,0.37,0.42,1.8-0.07,2.18
			c-3.38-0.13-6.43-0.2-9.37-0.2c-3.01,0-6.12,0.07-9.49,0.2c-0.51-0.38-0.51-1.81,0-2.18l1.75-0.32c2.86-0.5,3.23-0.94,3.23-6.82
			v-22.97c0-5.87-0.37-6.31-3.23-6.81l-1.75-0.31c-0.51-0.37-0.51-1.81,0-2.19c3.37,0.13,6.48,0.19,9.49,0.19
			c2.94,0,6.05-0.06,9.44-0.19c0.49,0.38,0.49,1.82,0,2.19l-1.75,0.31c-2.87,0.5-3.25,0.94-3.25,6.81V224.09z"/>
		<path class="st2" d="M531.55,222.85c0,2.93,0.26,4.93,1.06,5.93c0.82,1.06,1.94,1.57,6.5,1.57c5.68,0,7.43-0.19,11.11-7.43
			c0.5-0.63,1.94-0.38,2.37,0.37c-0.31,3.24-1.81,8.43-2.68,10.11c-3.31-0.13-9.31-0.2-14.43-0.2h-8.36c-2.87,0-6,0.07-9.87,0.2
			c-0.57-0.38-0.68-1.81-0.19-2.18l2.37-0.32c2.81-0.37,3.19-0.88,3.19-6.68v-23.23c0-5.8-0.38-6.37-3.19-6.75l-1.82-0.25
			c-0.61-0.37-0.61-1.81,0.13-2.19c3.26,0.13,6.38,0.19,9.38,0.19c3,0,6.12-0.06,9.23-0.19c0.5,0.38,0.5,1.82,0,2.19l-1.62,0.25
			c-2.81,0.44-3.19,0.95-3.19,6.75V222.85z"/>
		<path class="st2" d="M568.06,222.85c0,2.93,0.25,4.93,1.06,5.93c0.81,1.06,1.94,1.57,6.5,1.57c5.67,0,7.42-0.19,11.11-7.43
			c0.49-0.63,1.94-0.38,2.36,0.37c-0.3,3.24-1.81,8.43-2.68,10.11c-3.32-0.13-9.3-0.2-14.42-0.2h-8.36c-2.89,0-6,0.07-9.88,0.2
			c-0.55-0.38-0.68-1.81-0.18-2.18l2.38-0.32c2.81-0.37,3.18-0.88,3.18-6.68v-23.23c0-5.8-0.37-6.37-3.18-6.75l-1.82-0.25
			c-0.62-0.37-0.62-1.81,0.13-2.19c3.24,0.13,6.37,0.19,9.37,0.19c2.99,0,6.1-0.06,9.24-0.19c0.49,0.38,0.49,1.82,0,2.19l-1.64,0.25
			c-2.8,0.44-3.18,0.95-3.18,6.75V222.85z"/>
		<path class="st2" d="M604.58,224.09c0,5.88,0.36,6.31,3.25,6.82l1.74,0.32c0.5,0.37,0.44,1.8-0.06,2.18
			c-3.37-0.13-6.44-0.2-9.36-0.2c-2.99,0-6.11,0.07-9.5,0.2c-0.5-0.38-0.5-1.81,0-2.18l1.74-0.32c2.89-0.5,3.27-0.94,3.27-6.82
			v-22.97c0-5.87-0.38-6.31-3.27-6.81l-1.74-0.31c-0.5-0.37-0.5-1.81,0-2.19c3.39,0.13,6.51,0.19,9.5,0.19
			c2.93,0,6.05-0.06,9.42-0.19c0.5,0.38,0.5,1.82,0,2.19l-1.74,0.31c-2.89,0.5-3.25,0.94-3.25,6.81V224.09z"/>
		<path class="st2" d="M627.73,208.23c0,1.75,0.07,1.88,1.75,1.88h4.28c3.26,0,4.01-0.44,4.64-3.44l0.31-1.56
			c0.44-0.51,2.01-0.51,2.31,0.06c-0.12,1.99-0.19,4.24-0.19,6.62c0,2.37,0.07,4.62,0.19,6.62c-0.3,0.55-1.87,0.62-2.31,0.06
			l-0.31-1.57c-0.63-2.99-1.38-3.49-4.64-3.49h-4.28c-1.69,0-1.75,0.06-1.75,1.94v7.43c0,2.87,0.25,4.87,1,5.92
			c0.81,1.13,2.01,1.63,6.56,1.63c5.44,0,7.55-0.19,10.99-7.24c0.5-0.69,2.05-0.44,2.31,0.31c-0.25,3.25-1.75,8.31-2.63,9.99
			c-3.31-0.13-9.31-0.2-14.41-0.2h-8.13c-3,0-6.06,0.07-10.74,0.2c-0.49-0.38-0.49-1.87,0-2.18l2.93-0.44
			c2.81-0.44,3.18-0.81,3.18-6.56v-23.3c0-5.68-0.37-6.05-3.18-6.62l-1.55-0.31c-0.56-0.37-0.51-1.81,0.13-2.19
			c2.93,0.13,5.99,0.19,8.98,0.19h13.23c4.01,0,7.56-0.06,8.38-0.19c0.05,1,0.5,5.5,0.81,9.68c-0.25,0.69-1.68,0.81-2.31,0.25
			c-0.7-2.19-1.58-4.06-2.37-4.94c-1.19-1.18-3.06-1.94-6.13-1.94h-4.99c-2.06,0-2.06,0.13-2.06,2.44V208.23z"/>
		<path class="st2" d="M655.8,202.12c0-6.24-0.12-6.92-2.74-7.31l-1.69-0.25c-0.62-0.32-0.62-1.87,0.13-2.19
			c4.69-0.31,9.55-0.57,15.49-0.57c5.32,0,9.87,0.81,12.24,2.25c3.62,2.12,5.49,5.24,5.49,9.24c0,5.56-3.74,7.93-6.61,9.37
			c-0.63,0.31-0.63,0.68-0.32,1.38c4.12,8.36,6.68,13.05,9.68,15.6c1.61,1.31,3.25,1.69,4.17,1.75c0.57,0.31,0.57,1.24,0.25,1.62
			c-0.99,0.44-2.99,0.56-4.93,0.56c-5.76,0-9.35-2.05-12.1-6.55c-2-3.31-3.43-6.37-4.87-9.68c-0.75-1.68-1.75-2.18-3.31-2.18
			c-2.17,0-2.3,0.13-2.3,1.37v7.69c0,5.74,0.36,6.18,3.16,6.68l1.69,0.32c0.45,0.31,0.45,1.8,0,2.18c-3.3-0.13-6.17-0.2-9.17-0.2
			c-3.13,0-5.88,0.07-9.12,0.2c-0.5-0.38-0.5-1.87,0-2.18l1.68-0.32c2.82-0.5,3.18-0.94,3.18-6.68V202.12z M664.37,210.05
			c0,2.19,0.17,2.37,3.85,2.37c2.25,0,3.56-0.56,4.76-1.75c1.06-1.06,2.24-3.07,2.24-6.74c0-5.62-3.31-9.24-8.18-9.24
			c-2.54,0-2.67,0.19-2.67,3.19V210.05z"/>
	</g>
	<g>
		<g>
			<path class="st1" d="M134.89,62.45c0,0,33.17-2.64,50.26-0.08c0,0,3.39-0.7,0.46-3.62c0,0-10.41-11.55-24.82-11.55
				c-14.4,0-25.2,11.55-25.9,12.1C134.18,59.83,132.59,61.71,134.89,62.45z"/>
			<path class="st1" d="M212.72,156.48c0-2.56-1.46-4.08-3.86-4.08c-0.88,0-1.91,0.53-2.02,0.58l-0.15,0.07l-0.07,0.13
				c-8.33,12.84-22.37,20.5-37.62,20.5c-24.69,0-44.81-20.1-44.81-44.81c0-24.71,20.12-44.81,44.81-44.81
				c15.08,0,29.06,7.54,37.41,20.16l0.52,0.8h0.65c1.59,0.57,3.02,0.34,4-0.63c1.07-1.09,1.14-2.68,1.14-3.14v-0.3l-0.22-0.54
				c-10.39-18.89-30.24-30.63-51.78-30.63c-32.57,0-59.09,26.51-59.09,59.1c0,32.58,26.52,59.09,59.09,59.09
				c21.52,0,41.38-11.73,51.78-30.62l0.22-0.4V156.48z"/>
		</g>
	</g>
</g>
</svg>
