<?xml version="1.0" encoding="utf-8"?>
<!-- Generator: Adobe Illustrator 24.3.0, SVG Export Plug-In . SVG Version: 6.00 Build 0)  -->
<svg version="1.1" id="Layer_1" xmlns="http://www.w3.org/2000/svg" xmlns:xlink="http://www.w3.org/1999/xlink" x="0px" y="0px"
	 viewBox="0 0 792 288" style="enable-background:new 0 0 792 288;" xml:space="preserve">
<style type="text/css">
	.st0{fill:#042B44;}
	.st1{fill:#FFFFFF;}
	.st2{fill:#F5333F;}
	.st3{font-family:'AGaramondPro-Bold';}
	.st4{font-size:59.195px;}
	.st5{fill:#EF4236;}
</style>
<rect class="st0" width="792" height="288"/>
<g>
	<g>
		<path class="st1" d="M135.06,130.01c0,1.87,0.06,2,1.87,2h4.61c3.46,0,4.26-0.47,4.94-3.67l0.34-1.67
			c0.46-0.54,2.13-0.54,2.47,0.06c-0.13,2.13-0.2,4.53-0.2,7.07c0,2.53,0.07,4.94,0.2,7.07c-0.34,0.6-2.01,0.67-2.47,0.07
			l-0.34-1.67c-0.67-3.21-1.47-3.74-4.94-3.74h-4.61c-1.81,0-1.87,0.07-1.87,2.07v7.94c0,3.07,0.27,5.2,1.07,6.34
			c0.87,1.2,2.13,1.74,7.01,1.74c5.81,0,8.08-0.2,11.74-7.74c0.53-0.74,2.2-0.47,2.47,0.33c-0.27,3.47-1.87,8.87-2.8,10.68
			c-3.53-0.13-9.94-0.2-15.41-0.2h-8.68c-3.2,0-6.47,0.07-11.48,0.2c-0.53-0.4-0.53-2,0-2.34l3.15-0.47
			c2.99-0.47,3.39-0.87,3.39-7.01v-24.89c0-6.07-0.4-6.48-3.39-7.08l-1.67-0.33c-0.61-0.4-0.54-1.94,0.13-2.34
			c3.13,0.13,6.4,0.2,9.61,0.2h14.14c4.27,0,8.06-0.07,8.95-0.2c0.07,1.07,0.53,5.87,0.87,10.35c-0.28,0.73-1.81,0.87-2.47,0.27
			c-0.73-2.34-1.67-4.34-2.53-5.27c-1.27-1.27-3.27-2.07-6.54-2.07h-5.34c-2.2,0-2.2,0.14-2.2,2.61V130.01z"/>
		<path class="st1" d="M165.09,123.54c0-6.74-0.13-7.41-2.94-7.81l-1.8-0.27c-0.6-0.33-0.73-2.34,0.27-2.4
			c5.08-0.33,9.94-0.6,16.62-0.6c6.4,0,10.67,0.74,13.61,2.47c2.87,1.74,4.61,4.54,4.61,8.47c0,5.6-4.75,7.81-6.81,8.34
			c-0.67,0.14-1.33,0.4-1.33,0.74c0,0.2,0.32,0.4,0.93,0.54c5.27,1.13,9.74,4.6,9.8,11.07c0.07,6.14-3.59,9.74-7.81,11.21
			c-4.2,1.47-9.21,1.67-13.27,1.67c-2.41,0-4.94-0.27-6.87-0.27c-3.27,0-6.54,0.07-10.34,0.2c-0.53-0.4-0.53-2.13,0-2.34l1.93-0.4
			c3.01-0.6,3.41-1.07,3.41-7.08V123.54z M174.3,130.01c0,1.74,0.07,1.87,3.53,1.87c5.74,0,7.88-3.67,7.88-7.68
			c0-5.8-3.61-8.68-8.21-8.68c-3.13,0-3.21,0.54-3.21,3.47V130.01z M174.3,145.43c0,5.2,0.67,8.47,5.87,8.47
			c4.94,0,7.55-3.8,7.55-9.21c0-5.8-3.33-9.87-9.74-9.87c-3.67,0-3.67,0.06-3.67,2.73V145.43z"/>
		<path class="st1" d="M204.67,122.27c0-6.2-0.4-6.6-3.41-7.21l-1.66-0.33c-0.54-0.4-0.6-1.87,0.13-2.27c3.2,0.13,6.54,0.2,9.74,0.2
			c3.27,0,6.54-0.07,9.74-0.2c0.54,0.4,0.54,1.87,0,2.27l-1.61,0.27c-2.99,0.53-3.4,1.07-3.4,7.27v15.41
			c0,7.8,0.87,16.42,11.01,16.42c8.54,0,11.14-7.47,11.14-16.62v-8.07c0-5.4-0.27-10.47-1-12.21c-0.6-1.4-2.07-1.8-3.87-2.13
			l-1.8-0.33c-0.53-0.53-0.4-1.87,0-2.27c3.6,0.13,6.2,0.2,8.95,0.2c2.47,0,4.93-0.07,7.47-0.2c0.4,0.4,0.54,1.74,0,2.27l-1.19,0.27
			c-1.73,0.4-3,0.8-3.6,2.2c-0.74,1.74-1,6.81-1,12.21v7.47c0,6.27-0.6,12.01-4.28,16.08c-2.93,3.14-7.8,4.8-13.2,4.8
			c-5.08,0-9.61-0.8-13.22-3.74c-3.48-2.87-4.94-7.8-4.94-15.08V122.27z"/>
		<path class="st1" d="M255.12,141.62c-1.61,0-1.8,0.07-2.2,1.33l-2.6,7.74c-0.4,1.34-0.47,1.87-0.47,2.4c0,0.4,0.86,0.8,2.73,1.14
			l2,0.33c0.4,0.47,0.53,2-0.13,2.34c-2.33-0.13-4.73-0.13-7.54-0.2c-2.27,0-3.81,0.2-6.87,0.2c-0.74-0.4-0.67-1.8-0.2-2.34l1.8-0.2
			c1.6-0.2,2.94-0.74,4.07-3.33c1.13-2.67,2.4-5.88,4.21-10.68l6.07-16.28c1.54-4.2,2.67-6.53,2.47-8.47c3.21-0.73,5.67-4,5.8-4
			c0.87,0,1.27,0.33,1.54,1.33c0.53,1.94,1.33,4.41,3,9.14l9.07,26.16c1.4,4,2,5.54,4.46,5.94l2.54,0.4
			c0.4,0.34,0.53,1.93-0.07,2.34c-3.21-0.13-6.8-0.2-10.27-0.2c-3.34,0-5.94,0.07-9.01,0.2c-0.73-0.4-0.87-1.8-0.13-2.34l2.14-0.33
			c1.53-0.27,1.8-0.74,1.8-1.14c0-0.47-0.46-2.07-1.28-4.54l-1.8-5.74c-0.33-1.06-0.87-1.2-3.2-1.2H255.12z M262.72,138.08
			c1.53,0,1.87-0.2,1.34-1.93l-1.74-5.4c-0.93-2.87-2.13-6.47-2.73-7.87c-0.54,1.53-1.87,5.14-2.87,8.21l-1.67,5
			c-0.6,1.8-0.27,2,1.4,2H262.72z"/>
		<path class="st1" d="M326.59,145.36c0,4.33,0,8.54,0.14,10.74c-0.47,0.8-2.33,1.53-3.94,1.53c-0.06,0-2.27-3.4-5.4-7.27
			l-15.41-19.09c-3.86-4.73-6.07-7.54-7.27-8.54c-0.33,0.67-0.33,1.8-0.33,4.27v12.94c0,5.41,0.27,10.41,1,12.21
			c0.6,1.4,2.14,1.87,3.87,2.13l1.87,0.27c0.53,0.53,0.39,1.93,0,2.34c-3.6-0.13-6.27-0.2-8.95-0.2c-2.47,0-4.93,0.07-7.47,0.2
			c-0.4-0.4-0.53-1.8,0-2.34l1.14-0.2c1.8-0.34,3.13-0.8,3.66-2.21c0.73-1.8,0.93-6.8,0.93-12.21v-16.95c0-3.67-0.06-4.74-0.46-5.67
			c-0.53-1.14-1.47-1.94-3.8-2.27l-1.87-0.26c-0.47-0.54-0.4-2.14,0.27-2.34c3.13,0.13,6.47,0.2,9.2,0.2c2.28,0,4.22-0.07,5.61-0.2
			c0.66,3,5.01,8.07,11.01,15.22l5.61,6.6c2.93,3.46,4.87,5.8,6.4,7.34c0.27-0.67,0.27-1.8,0.27-3v-9.21c0-5.4-0.27-10.41-1-12.21
			c-0.6-1.4-2.07-1.87-3.87-2.13l-1.8-0.26c-0.54-0.54-0.41-1.94,0-2.34c3.6,0.13,6.21,0.2,8.93,0.2c2.47,0,4.87-0.07,7.47-0.2
			c0.4,0.4,0.54,1.8,0,2.34l-1.2,0.2c-1.73,0.26-3,0.8-3.6,2.2c-0.74,1.8-1,6.81-1,12.21V145.36z"/>
		<path class="st1" d="M346.68,141.62c-1.6,0-1.8,0.07-2.2,1.33l-2.59,7.74c-0.41,1.34-0.47,1.87-0.47,2.4c0,0.4,0.86,0.8,2.73,1.14
			l2,0.33c0.4,0.47,0.53,2-0.13,2.34c-2.34-0.13-4.74-0.13-7.54-0.2c-2.27,0-3.8,0.2-6.87,0.2c-0.74-0.4-0.67-1.8-0.2-2.34l1.8-0.2
			c1.6-0.2,2.94-0.74,4.07-3.33c1.13-2.67,2.4-5.88,4.2-10.68l6.07-16.28c1.54-4.2,2.67-6.53,2.47-8.47c3.2-0.73,5.67-4,5.81-4
			c0.87,0,1.26,0.33,1.53,1.33c0.54,1.94,1.33,4.41,3,9.14l9.08,26.16c1.4,4,1.99,5.54,4.46,5.94l2.54,0.4
			c0.4,0.34,0.53,1.93-0.07,2.34c-3.2-0.13-6.81-0.2-10.27-0.2c-3.34,0-5.94,0.07-9.02,0.2c-0.73-0.4-0.86-1.8-0.13-2.34l2.13-0.33
			c1.54-0.27,1.8-0.74,1.8-1.14c0-0.47-0.47-2.07-1.26-4.54l-1.8-5.74c-0.34-1.06-0.87-1.2-3.21-1.2H346.68z M354.28,138.08
			c1.54,0,1.87-0.2,1.34-1.93l-1.73-5.4c-0.93-2.87-2.13-6.47-2.73-7.87c-0.54,1.53-1.87,5.14-2.87,8.21l-1.67,5
			c-0.6,1.8-0.27,2,1.39,2H354.28z"/>
	</g>
	<g>
		<path class="st2" d="M204.51,185.59c0,1.6,0.13,2.68,0.58,3.23c0.44,0.58,1.05,0.85,3.53,0.85c3.09,0,4.05-0.1,6.06-4.05
			c0.27-0.34,1.06-0.2,1.29,0.2c-0.16,1.76-0.99,4.59-1.46,5.51c-1.8-0.07-5.07-0.11-7.86-0.11h-4.56c-1.57,0-3.27,0.04-5.38,0.11
			c-0.3-0.21-0.37-0.99-0.1-1.19l1.29-0.17c1.54-0.2,1.73-0.48,1.73-3.64v-12.65c0-3.16-0.2-3.47-1.73-3.67l-0.98-0.14
			c-0.34-0.2-0.34-0.98,0.07-1.19c1.76,0.07,3.46,0.1,5.09,0.1c1.63,0,3.33-0.03,5.04-0.1c0.27,0.21,0.27,0.99,0,1.19l-0.89,0.14
			c-1.53,0.24-1.73,0.52-1.73,3.67V185.59z"/>
		<path class="st2" d="M225.83,180.46c-1.4,0-1.43,0.03-1.43,0.98v4.9c0,3.16,0.2,3.47,1.73,3.67l1.09,0.14
			c0.27,0.2,0.27,0.98,0,1.19c-1.94-0.07-3.64-0.11-5.17-0.11c-1.63,0-3.34,0.04-5.07,0.11c-0.27-0.21-0.27-0.99,0-1.19l0.82-0.11
			c1.56-0.2,1.74-0.54,1.74-3.7v-12.65c0-3.16-0.17-3.5-1.74-3.71l-0.82-0.1c-0.27-0.2-0.27-0.98,0-1.19
			c1.66,0.07,3.44,0.1,5.07,0.1c1.53,0,3.23-0.03,4.72-0.1c0.27,0.21,0.27,0.99,0,1.19l-0.71,0.1c-1.46,0.21-1.66,0.55-1.66,3.71
			v3.95c0,0.99,0.03,1.02,1.43,1.02h7.08c1.43,0,1.43-0.04,1.43-1.02v-3.95c0-3.16-0.17-3.43-1.74-3.67l-0.92-0.14
			c-0.27-0.2-0.27-0.98,0-1.19c1.88,0.07,3.54,0.1,5.17,0.1c1.67,0,3.23-0.03,4.8-0.1c0.27,0.21,0.27,0.99,0,1.19l-0.68,0.1
			c-1.57,0.24-1.77,0.55-1.77,3.71v12.65c0,3.16,0.2,3.4,1.77,3.67l0.81,0.14c0.28,0.2,0.28,0.98,0,1.19
			c-1.7-0.07-3.37-0.11-4.93-0.11c-1.7,0-3.36,0.04-5,0.11c-0.27-0.21-0.27-0.99,0-1.19l0.75-0.11c1.56-0.2,1.74-0.54,1.74-3.7v-4.9
			c0-0.95,0-0.98-1.43-0.98H225.83z"/>
		<path class="st2" d="M246.77,173.69c0-3.16-0.21-3.37-1.74-3.67l-0.85-0.17c-0.28-0.2-0.31-0.95,0.07-1.16
			c1.63,0.07,3.33,0.1,4.97,0.1c1.66,0,3.33-0.03,4.96-0.1c0.27,0.21,0.27,0.95,0,1.16l-0.82,0.14c-1.53,0.27-1.73,0.55-1.73,3.71
			v7.86c0,3.98,0.44,8.37,5.61,8.37c4.35,0,5.68-3.81,5.68-8.47v-4.12c0-2.75-0.13-5.34-0.5-6.22c-0.31-0.71-1.06-0.92-1.97-1.09
			l-0.92-0.17c-0.27-0.27-0.2-0.95,0-1.16c1.83,0.07,3.16,0.1,4.56,0.1c1.25,0,2.52-0.03,3.81-0.1c0.2,0.21,0.27,0.89,0,1.16
			l-0.61,0.14c-0.88,0.21-1.53,0.41-1.83,1.12c-0.38,0.88-0.51,3.47-0.51,6.22v3.81c0,3.19-0.31,6.12-2.18,8.2
			c-1.49,1.59-3.98,2.45-6.73,2.45c-2.58,0-4.9-0.41-6.73-1.9c-1.78-1.46-2.52-3.98-2.52-7.69V173.69z"/>
		<path class="st2" d="M276.95,186.27c0,3.2,0.2,3.44,1.77,3.71l0.96,0.17c0.27,0.2,0.23,0.98-0.04,1.19
			c-1.84-0.07-3.5-0.11-5.1-0.11c-1.64,0-3.33,0.04-5.17,0.11c-0.28-0.21-0.28-0.99,0-1.19l0.96-0.17c1.56-0.27,1.76-0.51,1.76-3.71
			v-12.51c0-3.2-0.2-3.44-1.76-3.71l-0.96-0.17c-0.28-0.2-0.28-0.98,0-1.19c1.84,0.07,3.53,0.1,5.17,0.1c1.6,0,3.3-0.03,5.14-0.1
			c0.27,0.21,0.27,0.99,0,1.19l-0.96,0.17c-1.56,0.27-1.77,0.51-1.77,3.71V186.27z"/>
		<path class="st2" d="M289.56,185.59c0,1.6,0.14,2.68,0.58,3.23c0.45,0.58,1.05,0.85,3.54,0.85c3.09,0,4.05-0.1,6.05-4.05
			c0.27-0.34,1.06-0.2,1.29,0.2c-0.17,1.76-0.98,4.59-1.46,5.51c-1.8-0.07-5.07-0.11-7.86-0.11h-4.55c-1.57,0-3.27,0.04-5.38,0.11
			c-0.31-0.21-0.37-0.99-0.1-1.19l1.29-0.17c1.53-0.2,1.74-0.48,1.74-3.64v-12.65c0-3.16-0.21-3.47-1.74-3.67l-0.99-0.14
			c-0.33-0.2-0.33-0.98,0.07-1.19c1.78,0.07,3.48,0.1,5.11,0.1c1.63,0,3.33-0.03,5.03-0.1c0.27,0.21,0.27,0.99,0,1.19l-0.88,0.14
			c-1.53,0.24-1.74,0.52-1.74,3.67V185.59z"/>
		<path class="st2" d="M309.45,185.59c0,1.6,0.14,2.68,0.58,3.23c0.44,0.58,1.05,0.85,3.54,0.85c3.09,0,4.04-0.1,6.05-4.05
			c0.27-0.34,1.05-0.2,1.29,0.2c-0.16,1.76-0.98,4.59-1.46,5.51c-1.81-0.07-5.06-0.11-7.86-0.11h-4.55c-1.57,0-3.27,0.04-5.38,0.11
			c-0.3-0.21-0.37-0.99-0.1-1.19l1.3-0.17c1.53-0.2,1.73-0.48,1.73-3.64v-12.65c0-3.16-0.2-3.47-1.73-3.67l-0.99-0.14
			c-0.34-0.2-0.34-0.98,0.07-1.19c1.77,0.07,3.47,0.1,5.11,0.1c1.63,0,3.32-0.03,5.03-0.1c0.27,0.21,0.27,0.99,0,1.19l-0.89,0.14
			c-1.52,0.24-1.73,0.52-1.73,3.67V185.59z"/>
		<path class="st2" d="M329.34,186.27c0,3.2,0.2,3.44,1.77,3.71l0.95,0.17c0.27,0.2,0.24,0.98-0.03,1.19
			c-1.84-0.07-3.51-0.11-5.1-0.11c-1.63,0-3.33,0.04-5.17,0.11c-0.27-0.21-0.27-0.99,0-1.19l0.95-0.17
			c1.57-0.27,1.78-0.51,1.78-3.71v-12.51c0-3.2-0.21-3.44-1.78-3.71l-0.95-0.17c-0.27-0.2-0.27-0.98,0-1.19
			c1.85,0.07,3.55,0.1,5.17,0.1c1.59,0,3.3-0.03,5.13-0.1c0.27,0.21,0.27,0.99,0,1.19l-0.95,0.17c-1.57,0.27-1.77,0.51-1.77,3.71
			V186.27z"/>
		<path class="st2" d="M341.95,177.63c0,0.95,0.04,1.02,0.96,1.02h2.33c1.77,0,2.18-0.24,2.53-1.87l0.17-0.85
			c0.24-0.28,1.1-0.28,1.26,0.03c-0.06,1.08-0.1,2.31-0.1,3.6c0,1.29,0.04,2.52,0.1,3.61c-0.16,0.3-1.02,0.34-1.26,0.03l-0.17-0.85
			c-0.34-1.63-0.75-1.9-2.53-1.9h-2.33c-0.92,0-0.96,0.03-0.96,1.05v4.05c0,1.56,0.14,2.65,0.54,3.23c0.44,0.61,1.1,0.89,3.57,0.89
			c2.96,0,4.11-0.1,5.99-3.95c0.27-0.38,1.12-0.24,1.26,0.17c-0.14,1.77-0.96,4.52-1.43,5.44c-1.8-0.07-5.07-0.11-7.85-0.11h-4.43
			c-1.63,0-3.3,0.04-5.85,0.11c-0.27-0.21-0.27-1.02,0-1.19l1.6-0.24c1.53-0.24,1.73-0.44,1.73-3.57v-12.69c0-3.09-0.2-3.3-1.73-3.6
			l-0.85-0.17c-0.31-0.2-0.28-0.98,0.07-1.19c1.59,0.07,3.26,0.1,4.89,0.1h7.21c2.18,0,4.12-0.03,4.56-0.1
			c0.03,0.55,0.27,3,0.44,5.27c-0.13,0.38-0.92,0.44-1.26,0.14c-0.38-1.19-0.86-2.21-1.29-2.69c-0.65-0.64-1.67-1.05-3.34-1.05
			h-2.72c-1.12,0-1.12,0.07-1.12,1.33V177.63z"/>
		<path class="st2" d="M357.24,174.3c0-3.4-0.07-3.77-1.49-3.98l-0.92-0.14c-0.34-0.17-0.34-1.02,0.07-1.19
			c2.55-0.17,5.2-0.31,8.44-0.31c2.9,0,5.38,0.44,6.67,1.23c1.97,1.16,2.99,2.85,2.99,5.03c0,3.03-2.03,4.32-3.6,5.1
			c-0.34,0.17-0.34,0.37-0.17,0.75c2.24,4.55,3.64,7.11,5.27,8.5c0.88,0.71,1.77,0.92,2.27,0.95c0.31,0.17,0.31,0.68,0.14,0.88
			c-0.54,0.24-1.63,0.31-2.69,0.31c-3.14,0-5.09-1.12-6.59-3.57c-1.09-1.8-1.87-3.47-2.66-5.28c-0.41-0.92-0.96-1.19-1.8-1.19
			c-1.18,0-1.25,0.07-1.25,0.75v4.19c0,3.13,0.2,3.37,1.72,3.64l0.92,0.17c0.24,0.17,0.24,0.98,0,1.19
			c-1.8-0.07-3.36-0.11-4.99-0.11c-1.7,0-3.21,0.04-4.97,0.11c-0.27-0.21-0.27-1.02,0-1.19l0.91-0.17c1.54-0.27,1.73-0.51,1.73-3.64
			V174.3z M361.91,178.62c0,1.19,0.09,1.29,2.1,1.29c1.23,0,1.94-0.31,2.59-0.95c0.58-0.58,1.22-1.67,1.22-3.67
			c0-3.06-1.8-5.03-4.46-5.03c-1.38,0-1.46,0.1-1.46,1.74V178.62z"/>
	</g>
	<g>
		<g>
			<path class="st1" d="M73.5,98.23c0,0,18.07-1.44,27.38-0.05c0,0,1.85-0.38,0.25-1.97c0,0-5.67-6.29-13.52-6.29
				c-7.85,0-13.73,6.29-14.11,6.59C73.12,96.79,72.25,97.82,73.5,98.23z"/>
			<path class="st1" d="M115.89,149.44c0-1.39-0.79-2.22-2.1-2.22c-0.48,0-1.04,0.29-1.1,0.32l-0.08,0.04l-0.04,0.07
				c-4.54,6.99-12.19,11.16-20.49,11.16c-13.45,0-24.4-10.95-24.4-24.41c0-13.46,10.96-24.41,24.4-24.41
				c8.22,0,15.83,4.1,20.38,10.98l0.28,0.43h0.35c0.87,0.31,1.65,0.19,2.18-0.34c0.59-0.59,0.62-1.46,0.62-1.71v-0.17l-0.12-0.29
				c-5.66-10.29-16.47-16.68-28.21-16.68c-17.74,0-32.19,14.44-32.19,32.19c0,17.75,14.44,32.19,32.19,32.19
				c11.72,0,22.54-6.39,28.21-16.68l0.12-0.22V149.44z"/>
		</g>
	</g>
</g>
<text transform="matrix(0.9884 0 0 1 407.1324 131.8836)" class="st1 st3 st4">INSURANCE</text>
<rect x="390.74" y="80.93" class="st5" width="3.53" height="120.14"/>
<text transform="matrix(0.9884 0 0 1 407.0845 191.6693)" class="st1 st3 st4">BROKERS</text>
</svg>
